<svg xmlns="http://www.w3.org/2000/svg" xmlns:xlink="http://www.w3.org/1999/xlink" contentStyleType="text/css" data-diagram-type="CLASS" height="730px" preserveAspectRatio="none" style="width:1365px;height:730px;background:#FFFFFF;" version="1.1" viewBox="0 0 1365 730" width="1365px" zoomAndPan="magnify"><defs/><g><!--cluster System--><g class="cluster" data-entity="System" data-source-line="1" data-uid="ent0003" id="cluster_System"><path d="M135.31,624.13 L194.6274,624.13 A3.75,3.75 0 0 1 197.1274,626.63 L204.1274,646.4269 L357.31,646.4269 A2.5,2.5 0 0 1 359.81,648.9269 L359.81,720.63 A2.5,2.5 0 0 1 357.31,723.13 L135.31,723.13 A2.5,2.5 0 0 1 132.81,720.63 L132.81,626.63 A2.5,2.5 0 0 1 135.31,624.13" fill="none" style="stroke:#000000;stroke-width:1.5;"/><line style="stroke:#000000;stroke-width:1.5;" x1="132.81" x2="204.1274" y1="646.4269" y2="646.4269"/><text fill="#000000" font-family="sans-serif" font-size="14" font-weight="bold" lengthAdjust="spacing" textLength="58.3174" x="136.81" y="639.1251">System</text></g><!--cluster UnityEngine--><g class="cluster" data-entity="UnityEngine" data-source-line="3" data-uid="ent0006" id="cluster_UnityEngine"><path d="M177.31,342.94 L274.0746,342.94 A3.75,3.75 0 0 1 276.5746,345.44 L283.5746,365.2369 L391.31,365.2369 A2.5,2.5 0 0 1 393.81,367.7369 L393.81,439.44 A2.5,2.5 0 0 1 391.31,441.94 L177.31,441.94 A2.5,2.5 0 0 1 174.81,439.44 L174.81,345.44 A2.5,2.5 0 0 1 177.31,342.94" fill="none" style="stroke:#000000;stroke-width:1.5;"/><line style="stroke:#000000;stroke-width:1.5;" x1="174.81" x2="283.5746" y1="365.2369" y2="365.2369"/><text fill="#000000" font-family="sans-serif" font-size="14" font-weight="bold" lengthAdjust="spacing" textLength="95.7646" x="178.81" y="357.9351">UnityEngine</text></g><!--class List--><g class="entity" data-entity="List" data-source-line="1" data-uid="ent0002" id="entity_List"><rect fill="#F1F1F1" height="48" rx="2.5" ry="2.5" style="stroke:#181818;stroke-width:0.5;" width="56.4727" x="287.57" y="659.13"/><ellipse cx="302.57" cy="675.13" fill="#ADD1B2" rx="11" ry="11" style="stroke:#181818;stroke-width:1;"/><path d="M305.5388,680.7706 Q304.9606,681.0675 304.32,681.2081 Q303.6794,681.3644 302.9763,681.3644 Q300.4763,681.3644 299.1481,679.7238 Q297.8356,678.0675 297.8356,674.9425 Q297.8356,671.8175 299.1481,670.1613 Q300.4763,668.505 302.9763,668.505 Q303.6794,668.505 304.32,668.6613 Q304.9763,668.8175 305.5388,669.1144 L305.5388,671.8331 Q304.9138,671.255 304.32,670.9894 Q303.7263,670.7081 303.1013,670.7081 Q301.7575,670.7081 301.07,671.7863 Q300.3825,672.8488 300.3825,674.9425 Q300.3825,677.0363 301.07,678.1144 Q301.7575,679.1769 303.1013,679.1769 Q303.7263,679.1769 304.32,678.9113 Q304.9138,678.63 305.5388,678.0519 L305.5388,680.7706 Z " fill="#000000"/><text fill="#000000" font-family="sans-serif" font-size="14" lengthAdjust="spacing" textLength="24.4727" x="316.57" y="679.9767">List</text><line style="stroke:#181818;stroke-width:0.5;" x1="288.57" x2="343.0427" y1="691.13" y2="691.13"/><line style="stroke:#181818;stroke-width:0.5;" x1="288.57" x2="343.0427" y1="699.13" y2="699.13"/></g><!--class Dictionary--><g class="entity" data-entity="Dictionary" data-source-line="2" data-uid="ent0004" id="entity_Dictionary"><rect fill="#F1F1F1" height="48" rx="2.5" ry="2.5" style="stroke:#181818;stroke-width:0.5;" width="103.8047" x="148.91" y="659.13"/><ellipse cx="163.91" cy="675.13" fill="#ADD1B2" rx="11" ry="11" style="stroke:#181818;stroke-width:1;"/><path d="M166.8788,680.7706 Q166.3006,681.0675 165.66,681.2081 Q165.0194,681.3644 164.3163,681.3644 Q161.8163,681.3644 160.4881,679.7238 Q159.1756,678.0675 159.1756,674.9425 Q159.1756,671.8175 160.4881,670.1613 Q161.8163,668.505 164.3163,668.505 Q165.0194,668.505 165.66,668.6613 Q166.3163,668.8175 166.8788,669.1144 L166.8788,671.8331 Q166.2538,671.255 165.66,670.9894 Q165.0663,670.7081 164.4413,670.7081 Q163.0975,670.7081 162.41,671.7863 Q161.7225,672.8488 161.7225,674.9425 Q161.7225,677.0363 162.41,678.1144 Q163.0975,679.1769 164.4413,679.1769 Q165.0663,679.1769 165.66,678.9113 Q166.2538,678.63 166.8788,678.0519 L166.8788,680.7706 Z " fill="#000000"/><text fill="#000000" font-family="sans-serif" font-size="14" lengthAdjust="spacing" textLength="71.8047" x="177.91" y="679.9767">Dictionary</text><line style="stroke:#181818;stroke-width:0.5;" x1="149.91" x2="251.7147" y1="691.13" y2="691.13"/><line style="stroke:#181818;stroke-width:0.5;" x1="149.91" x2="251.7147" y1="699.13" y2="699.13"/></g><!--class Physics--><g class="entity" data-entity="Physics" data-source-line="3" data-uid="ent0005" id="entity_Physics"><rect fill="#F1F1F1" height="48" rx="2.5" ry="2.5" style="stroke:#181818;stroke-width:0.5;" width="83.7754" x="293.92" y="377.94"/><ellipse cx="308.92" cy="393.94" fill="#ADD1B2" rx="11" ry="11" style="stroke:#181818;stroke-width:1;"/><path d="M311.8888,399.5806 Q311.3106,399.8775 310.67,400.0181 Q310.0294,400.1744 309.3263,400.1744 Q306.8263,400.1744 305.4981,398.5338 Q304.1856,396.8775 304.1856,393.7525 Q304.1856,390.6275 305.4981,388.9713 Q306.8263,387.315 309.3263,387.315 Q310.0294,387.315 310.67,387.4713 Q311.3263,387.6275 311.8888,387.9244 L311.8888,390.6431 Q311.2638,390.065 310.67,389.7994 Q310.0763,389.5181 309.4513,389.5181 Q308.1075,389.5181 307.42,390.5963 Q306.7325,391.6588 306.7325,393.7525 Q306.7325,395.8463 307.42,396.9244 Q308.1075,397.9869 309.4513,397.9869 Q310.0763,397.9869 310.67,397.7213 Q311.2638,397.44 311.8888,396.8619 L311.8888,399.5806 Z " fill="#000000"/><text fill="#000000" font-family="sans-serif" font-size="14" lengthAdjust="spacing" textLength="51.7754" x="322.92" y="398.7867">Physics</text><line style="stroke:#181818;stroke-width:0.5;" x1="294.92" x2="376.6954" y1="409.94" y2="409.94"/><line style="stroke:#181818;stroke-width:0.5;" x1="294.92" x2="376.6954" y1="417.94" y2="417.94"/></g><!--class Input--><g class="entity" data-entity="Input" data-source-line="4" data-uid="ent0007" id="entity_Input"><rect fill="#F1F1F1" height="48" rx="2.5" ry="2.5" style="stroke:#181818;stroke-width:0.5;" width="68.251" x="190.68" y="377.94"/><ellipse cx="205.68" cy="393.94" fill="#ADD1B2" rx="11" ry="11" style="stroke:#181818;stroke-width:1;"/><path d="M208.6488,399.5806 Q208.0706,399.8775 207.43,400.0181 Q206.7894,400.1744 206.0863,400.1744 Q203.5863,400.1744 202.2581,398.5338 Q200.9456,396.8775 200.9456,393.7525 Q200.9456,390.6275 202.2581,388.9713 Q203.5863,387.315 206.0863,387.315 Q206.7894,387.315 207.43,387.4713 Q208.0863,387.6275 208.6488,387.9244 L208.6488,390.6431 Q208.0238,390.065 207.43,389.7994 Q206.8363,389.5181 206.2113,389.5181 Q204.8675,389.5181 204.18,390.5963 Q203.4925,391.6588 203.4925,393.7525 Q203.4925,395.8463 204.18,396.9244 Q204.8675,397.9869 206.2113,397.9869 Q206.8363,397.9869 207.43,397.7213 Q208.0238,397.44 208.6488,396.8619 L208.6488,399.5806 Z " fill="#000000"/><text fill="#000000" font-family="sans-serif" font-size="14" lengthAdjust="spacing" textLength="36.251" x="219.68" y="398.7867">Input</text><line style="stroke:#181818;stroke-width:0.5;" x1="191.68" x2="257.931" y1="409.94" y2="409.94"/><line style="stroke:#181818;stroke-width:0.5;" x1="191.68" x2="257.931" y1="417.94" y2="417.94"/></g><!--class ObjectPool--><g class="entity" data-entity="ObjectPool" data-source-line="6" data-uid="ent0008" id="entity_ObjectPool"><rect fill="#F1F1F1" height="80.5938" rx="2.5" ry="2.5" style="stroke:#181818;stroke-width:0.5;" width="171.7148" x="451.95" y="518.54"/><ellipse cx="490.9468" cy="534.54" fill="#ADD1B2" rx="11" ry="11" style="stroke:#181818;stroke-width:1;"/><path d="M493.9155,540.1806 Q493.3374,540.4775 492.6968,540.6181 Q492.0562,540.7744 491.353,540.7744 Q488.853,540.7744 487.5249,539.1338 Q486.2124,537.4775 486.2124,534.3525 Q486.2124,531.2275 487.5249,529.5713 Q488.853,527.915 491.353,527.915 Q492.0562,527.915 492.6968,528.0713 Q493.353,528.2275 493.9155,528.5244 L493.9155,531.2431 Q493.2905,530.665 492.6968,530.3994 Q492.103,530.1181 491.478,530.1181 Q490.1343,530.1181 489.4468,531.1963 Q488.7593,532.2588 488.7593,534.3525 Q488.7593,536.4463 489.4468,537.5244 Q490.1343,538.5869 491.478,538.5869 Q492.103,538.5869 492.6968,538.3213 Q493.2905,538.04 493.9155,537.4619 L493.9155,540.1806 Z " fill="#000000"/><text fill="#000000" font-family="sans-serif" font-size="14" lengthAdjust="spacing" textLength="75.0586" x="510.2794" y="539.3867">ObjectPool</text><rect fill="#FFFFFF" height="15.9688" style="stroke:#181818;stroke-width:1;stroke-dasharray:2.0,2.0;" width="9.3301" x="617.3348" y="515.54"/><text fill="#000000" font-family="sans-serif" font-size="12" font-style="italic" lengthAdjust="spacing" textLength="7.3301" x="618.3348" y="527.6787">T</text><line style="stroke:#181818;stroke-width:0.5;" x1="452.95" x2="622.6648" y1="550.54" y2="550.54"/><polygon fill="none" points="462.95,559.1884,466.95,563.1884,462.95,567.1884,458.95,563.1884" style="stroke:#B38D22;stroke-width:1;"/><text fill="#000000" font-family="sans-serif" font-size="14" lengthAdjust="spacing" textLength="132.9521" x="471.95" y="567.5351">List&lt;T&gt; activePool</text><polygon fill="none" points="462.95,575.4853,466.95,579.4853,462.95,583.4853,458.95,579.4853" style="stroke:#B38D22;stroke-width:1;"/><text fill="#000000" font-family="sans-serif" font-size="14" lengthAdjust="spacing" textLength="145.7148" x="471.95" y="583.832">List&lt;T&gt; inactivePool</text><line style="stroke:#181818;stroke-width:0.5;" x1="452.95" x2="622.6648" y1="591.1338" y2="591.1338"/></g><!--class IPoolable--><g class="entity" data-entity="IPoolable" data-source-line="10" data-uid="ent0009" id="entity_IPoolable"><rect fill="#F1F1F1" height="113.1875" rx="2.5" ry="2.5" style="stroke:#181818;stroke-width:0.5;" width="188.4219" x="412.6" y="345.35"/><ellipse cx="470.7807" cy="361.35" fill="#B4A7E5" rx="11" ry="11" style="stroke:#181818;stroke-width:1;"/><path d="M466.7025,357.1156 L466.7025,354.9594 L474.0932,354.9594 L474.0932,357.1156 L471.6244,357.1156 L471.6244,365.1938 L474.0932,365.1938 L474.0932,367.35 L466.7025,367.35 L466.7025,365.1938 L469.1713,365.1938 L469.1713,357.1156 L466.7025,357.1156 Z " fill="#000000"/><text fill="#000000" font-family="sans-serif" font-size="14" font-style="italic" lengthAdjust="spacing" textLength="63.5605" x="491.2807" y="366.1967">IPoolable</text><line style="stroke:#181818;stroke-width:0.5;" x1="413.6" x2="600.0219" y1="377.35" y2="377.35"/><polygon fill="none" points="423.6,385.9984,427.6,389.9984,423.6,393.9984,419.6,389.9984" style="stroke:#B38D22;stroke-width:1;"/><text fill="#000000" font-family="sans-serif" font-size="14" lengthAdjust="spacing" textLength="76.9111" x="432.6" y="394.3451">bool active</text><line style="stroke:#181818;stroke-width:0.5;" x1="413.6" x2="600.0219" y1="401.6469" y2="401.6469"/><polygon fill="#FFFF44" points="423.6,410.2953,427.6,414.2953,423.6,418.2953,419.6,414.2953" style="stroke:#B38D22;stroke-width:1;"/><text fill="#000000" font-family="sans-serif" font-size="14" lengthAdjust="spacing" textLength="158.1768" x="432.6" y="418.642">void OnEnableObject()</text><polygon fill="#FFFF44" points="423.6,426.5922,427.6,430.5922,423.6,434.5922,419.6,430.5922" style="stroke:#B38D22;stroke-width:1;"/><text fill="#000000" font-family="sans-serif" font-size="14" lengthAdjust="spacing" textLength="162.4219" x="432.6" y="434.9389">void OnDisableObject()</text><polygon fill="#FFFF44" points="423.6,442.8891,427.6,446.8891,423.6,450.8891,419.6,446.8891" style="stroke:#B38D22;stroke-width:1;"/><text fill="#000000" font-family="sans-serif" font-size="14" lengthAdjust="spacing" textLength="87.6299" x="432.6" y="451.2357">void DoDie()</text></g><!--class Gun--><g class="entity" data-entity="Gun" data-source-line="18" data-uid="ent0011" id="entity_Gun"><rect fill="#F1F1F1" height="80.5938" rx="2.5" ry="2.5" style="stroke:#181818;stroke-width:0.5;" width="327.6152" x="9" y="43.73"/><ellipse cx="154.2603" cy="59.73" fill="#ADD1B2" rx="11" ry="11" style="stroke:#181818;stroke-width:1;"/><path d="M157.229,65.3706 Q156.6509,65.6675 156.0103,65.8081 Q155.3696,65.9644 154.6665,65.9644 Q152.1665,65.9644 150.8384,64.3238 Q149.5259,62.6675 149.5259,59.5425 Q149.5259,56.4175 150.8384,54.7613 Q152.1665,53.105 154.6665,53.105 Q155.3696,53.105 156.0103,53.2613 Q156.6665,53.4175 157.229,53.7144 L157.229,56.4331 Q156.604,55.855 156.0103,55.5894 Q155.4165,55.3081 154.7915,55.3081 Q153.4478,55.3081 152.7603,56.3863 Q152.0728,57.4488 152.0728,59.5425 Q152.0728,61.6363 152.7603,62.7144 Q153.4478,63.7769 154.7915,63.7769 Q155.4165,63.7769 156.0103,63.5113 Q156.604,63.23 157.229,62.6519 L157.229,65.3706 Z " fill="#000000"/><text fill="#000000" font-family="sans-serif" font-size="14" lengthAdjust="spacing" textLength="28.5947" x="174.7603" y="64.5767">Gun</text><line style="stroke:#181818;stroke-width:0.5;" x1="10" x2="335.6152" y1="75.73" y2="75.73"/><rect fill="none" height="6" style="stroke:#C82930;stroke-width:1;" width="6" x="17" y="86.3784"/><text fill="#000000" font-family="sans-serif" font-size="14" lengthAdjust="spacing" textLength="214.7168" x="29" y="92.7251">IShootStrategy _shootStrategy</text><line style="stroke:#181818;stroke-width:0.5;" x1="10" x2="335.6152" y1="100.0269" y2="100.0269"/><polygon fill="#FFFF44" points="20,108.6753,24,112.6753,20,116.6753,16,112.6753" style="stroke:#B38D22;stroke-width:1;"/><text fill="#000000" font-family="sans-serif" font-size="14" lengthAdjust="spacing" textLength="301.6152" x="29" y="117.022">SetShootStrategy(IShootStrategy strategy)</text></g><!--class IShootStrategy--><g class="entity" data-entity="IShootStrategy" data-source-line="22" data-uid="ent0012" id="entity_IShootStrategy"><rect fill="#F1F1F1" height="64.2969" rx="2.5" ry="2.5" style="stroke:#181818;stroke-width:0.5;" width="136.4941" x="395.56" y="221.05"/><ellipse cx="410.56" cy="237.05" fill="#B4A7E5" rx="11" ry="11" style="stroke:#181818;stroke-width:1;"/><path d="M406.4819,232.8156 L406.4819,230.6594 L413.8725,230.6594 L413.8725,232.8156 L411.4038,232.8156 L411.4038,240.8937 L413.8725,240.8937 L413.8725,243.05 L406.4819,243.05 L406.4819,240.8937 L408.9506,240.8937 L408.9506,232.8156 L406.4819,232.8156 Z " fill="#000000"/><text fill="#000000" font-family="sans-serif" font-size="14" font-style="italic" lengthAdjust="spacing" textLength="104.4941" x="424.56" y="241.8967">IShootStrategy</text><line style="stroke:#181818;stroke-width:0.5;" x1="396.56" x2="531.0541" y1="253.05" y2="253.05"/><line style="stroke:#181818;stroke-width:0.5;" x1="396.56" x2="531.0541" y1="261.05" y2="261.05"/><polygon fill="#FFFF44" points="406.56,269.6984,410.56,273.6984,406.56,277.6984,402.56,273.6984" style="stroke:#B38D22;stroke-width:1;"/><text fill="#000000" font-family="sans-serif" font-size="14" lengthAdjust="spacing" textLength="51.3037" x="415.56" y="278.0451">Shoot()</text></g><!--class ShootProjectileStrategy--><g class="entity" data-entity="ShootProjectileStrategy" data-source-line="27" data-uid="ent0014" id="entity_ShootProjectileStrategy"><rect fill="#F1F1F1" height="64.2969" rx="2.5" ry="2.5" style="stroke:#181818;stroke-width:0.5;" width="201.6836" x="590.97" y="51.88"/><ellipse cx="607.9827" cy="67.88" fill="#ADD1B2" rx="11" ry="11" style="stroke:#181818;stroke-width:1;"/><path d="M610.9514,73.5206 Q610.3733,73.8175 609.7327,73.9581 Q609.0921,74.1144 608.3889,74.1144 Q605.8889,74.1144 604.5608,72.4738 Q603.2483,70.8175 603.2483,67.6925 Q603.2483,64.5675 604.5608,62.9112 Q605.8889,61.255 608.3889,61.255 Q609.0921,61.255 609.7327,61.4112 Q610.3889,61.5675 610.9514,61.8644 L610.9514,64.5831 Q610.3264,64.005 609.7327,63.7394 Q609.1389,63.4581 608.5139,63.4581 Q607.1702,63.4581 606.4827,64.5363 Q605.7952,65.5988 605.7952,67.6925 Q605.7952,69.7863 606.4827,70.8644 Q607.1702,71.9269 608.5139,71.9269 Q609.1389,71.9269 609.7327,71.6613 Q610.3264,71.38 610.9514,70.8019 L610.9514,73.5206 Z " fill="#000000"/><text fill="#000000" font-family="sans-serif" font-size="14" lengthAdjust="spacing" textLength="165.2109" x="622.43" y="72.7267">ShootProjectileStrategy</text><line style="stroke:#181818;stroke-width:0.5;" x1="591.97" x2="791.6536" y1="83.88" y2="83.88"/><rect fill="none" height="6" style="stroke:#C82930;stroke-width:1;" width="6" x="598.97" y="94.5284"/><text fill="#000000" font-family="sans-serif" font-size="14" lengthAdjust="spacing" textLength="175.6836" x="610.97" y="100.8751">PorjectileExample prefab</text><line style="stroke:#181818;stroke-width:0.5;" x1="591.97" x2="791.6536" y1="108.1769" y2="108.1769"/></g><!--class ShootHitscanStrategy--><g class="entity" data-entity="ShootHitscanStrategy" data-source-line="30" data-uid="ent0015" id="entity_ShootHitscanStrategy"><rect fill="#F1F1F1" height="64.2969" rx="2.5" ry="2.5" style="stroke:#181818;stroke-width:0.5;" width="184.7148" x="371.45" y="51.88"/><ellipse cx="386.45" cy="67.88" fill="#ADD1B2" rx="11" ry="11" style="stroke:#181818;stroke-width:1;"/><path d="M389.4188,73.5206 Q388.8406,73.8175 388.2,73.9581 Q387.5594,74.1144 386.8563,74.1144 Q384.3563,74.1144 383.0281,72.4738 Q381.7156,70.8175 381.7156,67.6925 Q381.7156,64.5675 383.0281,62.9112 Q384.3563,61.255 386.8563,61.255 Q387.5594,61.255 388.2,61.4112 Q388.8563,61.5675 389.4188,61.8644 L389.4188,64.5831 Q388.7938,64.005 388.2,63.7394 Q387.6063,63.4581 386.9813,63.4581 Q385.6375,63.4581 384.95,64.5363 Q384.2625,65.5988 384.2625,67.6925 Q384.2625,69.7863 384.95,70.8644 Q385.6375,71.9269 386.9813,71.9269 Q387.6063,71.9269 388.2,71.6613 Q388.7938,71.38 389.4188,70.8019 L389.4188,73.5206 Z " fill="#000000"/><text fill="#000000" font-family="sans-serif" font-size="14" lengthAdjust="spacing" textLength="152.7148" x="400.45" y="72.7267">ShootHitscanStrategy</text><line style="stroke:#181818;stroke-width:0.5;" x1="372.45" x2="555.1648" y1="83.88" y2="83.88"/><polygon fill="none" points="382.45,92.5284,386.45,96.5284,382.45,100.5284,378.45,96.5284" style="stroke:#B38D22;stroke-width:1;"/><text fill="#000000" font-family="sans-serif" font-size="14" lengthAdjust="spacing" textLength="95.2246" x="391.45" y="100.8751">float distance</text><line style="stroke:#181818;stroke-width:0.5;" x1="372.45" x2="555.1648" y1="108.1769" y2="108.1769"/></g><!--class ProjectileExample--><g class="entity" data-entity="ProjectileExample" data-source-line="36" data-uid="ent0018" id="entity_ProjectileExample"><rect fill="#F1F1F1" height="64.2969" rx="2.5" ry="2.5" style="stroke:#181818;stroke-width:0.5;" width="157.583" x="613.02" y="221.05"/><ellipse cx="628.02" cy="237.05" fill="#ADD1B2" rx="11" ry="11" style="stroke:#181818;stroke-width:1;"/><path d="M630.9888,242.6906 Q630.4106,242.9875 629.77,243.1281 Q629.1294,243.2844 628.4263,243.2844 Q625.9263,243.2844 624.5981,241.6437 Q623.2856,239.9875 623.2856,236.8625 Q623.2856,233.7375 624.5981,232.0812 Q625.9263,230.425 628.4263,230.425 Q629.1294,230.425 629.77,230.5812 Q630.4263,230.7375 630.9888,231.0344 L630.9888,233.7531 Q630.3638,233.175 629.77,232.9094 Q629.1763,232.6281 628.5513,232.6281 Q627.2075,232.6281 626.52,233.7062 Q625.8325,234.7687 625.8325,236.8625 Q625.8325,238.9562 626.52,240.0344 Q627.2075,241.0969 628.5513,241.0969 Q629.1763,241.0969 629.77,240.8312 Q630.3638,240.55 630.9888,239.9719 L630.9888,242.6906 Z " fill="#000000"/><text fill="#000000" font-family="sans-serif" font-size="14" lengthAdjust="spacing" textLength="125.583" x="642.02" y="241.8967">ProjectileExample</text><line style="stroke:#181818;stroke-width:0.5;" x1="614.02" x2="769.603" y1="253.05" y2="253.05"/><rect fill="none" height="6" style="stroke:#C82930;stroke-width:1;" width="6" x="621.02" y="263.6984"/><text fill="#000000" font-family="sans-serif" font-size="14" lengthAdjust="spacing" textLength="88.9971" x="633.02" y="270.0451">Rigidbody rb</text><line style="stroke:#181818;stroke-width:0.5;" x1="614.02" x2="769.603" y1="277.3469" y2="277.3469"/></g><!--class ProjectileExamplePool--><g class="entity" data-entity="ProjectileExamplePool" data-source-line="39" data-uid="ent0019" id="entity_ProjectileExamplePool"><rect fill="#F1F1F1" height="72.5625" rx="2.5" ry="2.5" style="stroke:#181818;stroke-width:0.5;" width="250.1025" x="635.76" y="365.66"/><ellipse cx="679.1355" cy="385.7928" fill="#ADD1B2" rx="11" ry="11" style="stroke:#181818;stroke-width:1;"/><path d="M682.1042,391.4334 Q681.5261,391.7303 680.8855,391.8709 Q680.2449,392.0272 679.5417,392.0272 Q677.0417,392.0272 675.7136,390.3866 Q674.4011,388.7303 674.4011,385.6053 Q674.4011,382.4803 675.7136,380.8241 Q677.0417,379.1678 679.5417,379.1678 Q680.2449,379.1678 680.8855,379.3241 Q681.5417,379.4803 682.1042,379.7772 L682.1042,382.4959 Q681.4792,381.9178 680.8855,381.6522 Q680.2917,381.3709 679.6667,381.3709 Q678.323,381.3709 677.6355,382.4491 Q676.948,383.5116 676.948,385.6053 Q676.948,387.6991 677.6355,388.7772 Q678.323,389.8397 679.6667,389.8397 Q680.2917,389.8397 680.8855,389.5741 Q681.4792,389.2928 682.1042,388.7147 L682.1042,391.4334 Z " fill="#000000"/><text fill="#000000" font-family="sans-serif" font-size="12" font-style="italic" lengthAdjust="spacing" textLength="71.2266" x="741.3508" y="381.7987">&#171;Singleton&#187;</text><text fill="#000000" font-family="sans-serif" font-size="14" lengthAdjust="spacing" textLength="155.0459" x="699.4412" y="397.6239">ProjectileExamplePool</text><line style="stroke:#181818;stroke-width:0.5;" x1="636.76" x2="884.8625" y1="405.9256" y2="405.9256"/><polygon fill="none" points="646.76,414.5741,650.76,418.5741,646.76,422.5741,642.76,418.5741" style="stroke:#B38D22;stroke-width:1;"/><text fill="#000000" font-family="sans-serif" font-size="14" lengthAdjust="spacing" textLength="224.1025" x="655.76" y="422.9207">ObjectPool&lt;ProjectileExample&gt;</text><line style="stroke:#181818;stroke-width:0.5;" x1="636.76" x2="884.8625" y1="430.2225" y2="430.2225"/></g><!--class GunInventory--><g class="entity" data-entity="GunInventory" data-source-line="51" data-uid="ent0026" id="entity_GunInventory"><rect fill="#F1F1F1" height="64.2969" rx="2.5" ry="2.5" style="stroke:#181818;stroke-width:0.5;" width="220.6807" x="70.47" y="221.05"/><ellipse cx="128.8284" cy="237.05" fill="#ADD1B2" rx="11" ry="11" style="stroke:#181818;stroke-width:1;"/><path d="M131.7971,242.6906 Q131.219,242.9875 130.5784,243.1281 Q129.9378,243.2844 129.2346,243.2844 Q126.7346,243.2844 125.4065,241.6437 Q124.094,239.9875 124.094,236.8625 Q124.094,233.7375 125.4065,232.0812 Q126.7346,230.425 129.2346,230.425 Q129.9378,230.425 130.5784,230.5812 Q131.2346,230.7375 131.7971,231.0344 L131.7971,233.7531 Q131.1721,233.175 130.5784,232.9094 Q129.9846,232.6281 129.3596,232.6281 Q128.0159,232.6281 127.3284,233.7062 Q126.6409,234.7687 126.6409,236.8625 Q126.6409,238.9562 127.3284,240.0344 Q128.0159,241.0969 129.3596,241.0969 Q129.9846,241.0969 130.5784,240.8312 Q131.1721,240.55 131.7971,239.9719 L131.7971,242.6906 Z " fill="#000000"/><text fill="#000000" font-family="sans-serif" font-size="14" lengthAdjust="spacing" textLength="95.4639" x="149.3284" y="241.8967">GunInventory</text><line style="stroke:#181818;stroke-width:0.5;" x1="71.47" x2="290.1507" y1="253.05" y2="253.05"/><polygon fill="none" points="81.47,261.6984,85.47,265.6984,81.47,269.6984,77.47,265.6984" style="stroke:#B38D22;stroke-width:1;"/><text fill="#000000" font-family="sans-serif" font-size="14" lengthAdjust="spacing" textLength="194.6807" x="90.47" y="270.0451">Dictionary&lt;KeyCode, Gun&gt;</text><line style="stroke:#181818;stroke-width:0.5;" x1="71.47" x2="290.1507" y1="277.3469" y2="277.3469"/></g><!--class GunBuilder--><g class="entity" data-entity="GunBuilder" data-source-line="57" data-uid="ent0029" id="entity_GunBuilder"><rect fill="#F1F1F1" height="154.0469" rx="2.5" ry="2.5" style="stroke:#181818;stroke-width:0.5;" width="287.2354" x="827.19" y="7"/><ellipse cx="927.504" cy="27.1328" fill="#ADD1B2" rx="11" ry="11" style="stroke:#181818;stroke-width:1;"/><path d="M930.4727,32.7734 Q929.8946,33.0703 929.254,33.2109 Q928.6133,33.3672 927.9102,33.3672 Q925.4102,33.3672 924.0821,31.7266 Q922.7696,30.0703 922.7696,26.9453 Q922.7696,23.8203 924.0821,22.1641 Q925.4102,20.5078 927.9102,20.5078 Q928.6133,20.5078 929.254,20.6641 Q929.9102,20.8203 930.4727,21.1172 L930.4727,23.8359 Q929.8477,23.2578 929.254,22.9922 Q928.6602,22.7109 928.0352,22.7109 Q926.6915,22.7109 926.004,23.7891 Q925.3165,24.8516 925.3165,26.9453 Q925.3165,29.0391 926.004,30.1172 Q926.6915,31.1797 928.0352,31.1797 Q928.6602,31.1797 929.254,30.9141 Q929.8477,30.6328 930.4727,30.0547 L930.4727,32.7734 Z " fill="#000000"/><text fill="#000000" font-family="sans-serif" font-size="12" font-style="italic" lengthAdjust="spacing" textLength="71.2266" x="951.4444" y="23.1387">&#171;Singleton&#187;</text><text fill="#000000" font-family="sans-serif" font-size="14" lengthAdjust="spacing" textLength="78.1074" x="948.004" y="38.9639">GunBuilder</text><line style="stroke:#181818;stroke-width:0.5;" x1="828.19" x2="1113.4254" y1="47.2656" y2="47.2656"/><rect fill="none" height="6" style="stroke:#C82930;stroke-width:1;" width="6" x="835.19" y="57.9141"/><text fill="#000000" font-family="sans-serif" font-size="14" lengthAdjust="spacing" textLength="90.5762" x="847.19" y="64.2607">Gun newGun</text><line style="stroke:#181818;stroke-width:0.5;" x1="828.19" x2="1113.4254" y1="71.5625" y2="71.5625"/><polygon fill="#FFFF44" points="838.19,80.2109,842.19,84.2109,838.19,88.2109,834.19,84.2109" style="stroke:#B38D22;stroke-width:1;"/><text fill="#000000" font-family="sans-serif" font-size="14" lengthAdjust="spacing" textLength="139.3984" x="847.19" y="88.5576">StartNewGunBuild()</text><polygon fill="#FFFF44" points="838.19,96.5078,842.19,100.5078,838.19,104.5078,834.19,100.5078" style="stroke:#B38D22;stroke-width:1;"/><text fill="#000000" font-family="sans-serif" font-size="14" lengthAdjust="spacing" textLength="192.6777" x="847.19" y="104.8545">SetAmmo(int consumption)</text><polygon fill="#FFFF44" points="838.19,112.8047,842.19,116.8047,838.19,120.8047,834.19,116.8047" style="stroke:#B38D22;stroke-width:1;"/><text fill="#000000" font-family="sans-serif" font-size="14" lengthAdjust="spacing" textLength="261.2354" x="847.19" y="121.1514">SetStrategy(IShootStrategy strategy)</text><polygon fill="#FFFF44" points="838.19,129.1016,842.19,133.1016,838.19,137.1016,834.19,133.1016" style="stroke:#B38D22;stroke-width:1;"/><text fill="#000000" font-family="sans-serif" font-size="14" lengthAdjust="spacing" textLength="172.874" x="847.19" y="137.4482">SetDamage(int damage)</text><polygon fill="#FFFF44" points="838.19,145.3984,842.19,149.3984,838.19,153.3984,834.19,149.3984" style="stroke:#B38D22;stroke-width:1;"/><text fill="#000000" font-family="sans-serif" font-size="14" lengthAdjust="spacing" textLength="128.0508" x="847.19" y="153.7451">Gun GetNewGun()</text></g><!--class IDamageable--><g class="entity" data-entity="IDamageable" data-source-line="67" data-uid="ent0030" id="entity_IDamageable"><rect fill="#F1F1F1" height="64.2969" rx="2.5" ry="2.5" style="stroke:#181818;stroke-width:0.5;" width="209.7363" x="1148.94" y="51.88"/><ellipse cx="1202.9713" cy="67.88" fill="#B4A7E5" rx="11" ry="11" style="stroke:#181818;stroke-width:1;"/><path d="M1198.8931,63.6456 L1198.8931,61.4894 L1206.2838,61.4894 L1206.2838,63.6456 L1203.815,63.6456 L1203.815,71.7238 L1206.2838,71.7238 L1206.2838,73.88 L1198.8931,73.88 L1198.8931,71.7238 L1201.3619,71.7238 L1201.3619,63.6456 L1198.8931,63.6456 Z " fill="#000000"/><text fill="#000000" font-family="sans-serif" font-size="14" font-style="italic" lengthAdjust="spacing" textLength="93.1738" x="1223.4713" y="72.7267">IDamageable</text><line style="stroke:#181818;stroke-width:0.5;" x1="1149.94" x2="1357.6763" y1="83.88" y2="83.88"/><line style="stroke:#181818;stroke-width:0.5;" x1="1149.94" x2="1357.6763" y1="91.88" y2="91.88"/><polygon fill="#FFFF44" points="1159.94,100.5284,1163.94,104.5284,1159.94,108.5284,1155.94,104.5284" style="stroke:#B38D22;stroke-width:1;"/><text fill="#000000" font-family="sans-serif" font-size="14" lengthAdjust="spacing" textLength="183.7363" x="1168.94" y="108.8751">TakeDamage(int damage)</text></g><!--link ObjectPool to List--><g class="link" data-entity-1="ObjectPool" data-entity-2="List" data-source-line="16" data-uid="lnk10" id="link_ObjectPool_List"><path codeLine="16" d="M465.73,599.54 C424.46,622.28 385.4703,643.7492 354.9603,660.5592" fill="none" id="ObjectPool-to-List" style="stroke:#181818;stroke-width:1;"/><polygon fill="#181818" points="344.45,666.35,351.6354,666.958,354.9603,660.5592,347.7749,659.9512,344.45,666.35" style="stroke:#181818;stroke-width:1;"/></g><!--link Gun to IShootStrategy--><g class="link" data-entity-1="Gun" data-entity-2="IShootStrategy" data-source-line="22" data-uid="lnk13" id="link_Gun_IShootStrategy"><path codeLine="22" d="M241.77,124.65 C292.86,154 351.1549,187.4822 398.5349,214.7022" fill="none" id="Gun-to-IShootStrategy" style="stroke:#181818;stroke-width:1;"/><polygon fill="#181818" points="408.94,220.68,405.73,214.2227,398.5349,214.7022,401.7449,221.1595,408.94,220.68" style="stroke:#181818;stroke-width:1;"/></g><!--link ShootProjectileStrategy to IShootStrategy--><g class="link" data-entity-1="ShootProjectileStrategy" data-entity-2="IShootStrategy" data-source-line="33" data-uid="lnk16" id="link_ShootProjectileStrategy_IShootStrategy"><path codeLine="33" d="M648.65,116.67 C607.99,146.49 552.2285,187.3619 511.6185,217.1419" fill="none" id="ShootProjectileStrategy-to-IShootStrategy" style="stroke:#181818;stroke-width:1;stroke-dasharray:7.0,7.0;"/><polygon fill="#181818" points="506.78,220.69,516.4031,218.5934,510.8121,217.7332,511.6723,212.1422,506.78,220.69" style="stroke:#181818;stroke-width:1;"/></g><!--link ShootHitscanStrategy to IShootStrategy--><g class="link" data-entity-1="ShootHitscanStrategy" data-entity-2="IShootStrategy" data-source-line="34" data-uid="lnk17" id="link_ShootHitscanStrategy_IShootStrategy"><path codeLine="34" d="M463.81,116.47 C463.81,146.27 463.81,184.77 463.81,214.61" fill="none" id="ShootHitscanStrategy-to-IShootStrategy" style="stroke:#181818;stroke-width:1;stroke-dasharray:7.0,7.0;"/><polygon fill="#181818" points="463.81,220.61,467.81,211.61,463.81,215.61,459.81,211.61,463.81,220.61" style="stroke:#181818;stroke-width:1;"/></g><!--link ProjectileExamplePool to ObjectPool--><g class="link" data-entity-1="ProjectileExamplePool" data-entity-2="ObjectPool" data-source-line="43" data-uid="lnk20" id="link_ProjectileExamplePool_ObjectPool"><path codeLine="43" d="M709.37,438.67 C675.15,462.44 640.0352,486.8235 604.7252,511.3535" fill="none" id="ProjectileExamplePool-to-ObjectPool" style="stroke:#181818;stroke-width:1;"/><polygon fill="#181818" points="594.87,518.2,602.0798,518.0618,604.7252,511.3535,597.5155,511.4917,594.87,518.2" style="stroke:#181818;stroke-width:1;"/></g><!--link ProjectileExamplePool to ProjectileExample--><g class="link" data-entity-1="ProjectileExamplePool" data-entity-2="ProjectileExample" data-source-line="44" data-uid="lnk21" id="link_ProjectileExamplePool_ProjectileExample"><path codeLine="44" d="M755.85,365.39 C746.87,341.06 737.774,319.4333 724.004,296.0233" fill="none" id="ProjectileExamplePool-to-ProjectileExample" style="stroke:#181818;stroke-width:1;"/><polygon fill="#181818" points="717.92,285.68,717.5142,292.8797,724.004,296.0233,724.4098,288.8236,717.92,285.68" style="stroke:#181818;stroke-width:1;"/></g><!--link ProjectileExample to ProjectileExamplePool--><g class="link" data-entity-1="ProjectileExample" data-entity-2="ProjectileExamplePool" data-source-line="45" data-uid="lnk22" id="link_ProjectileExample_ProjectileExamplePool"><path codeLine="45" d="M695.92,285.68 C704.33,309.09 713.3094,330.6166 727.0794,354.9466" fill="none" id="ProjectileExample-to-ProjectileExamplePool" style="stroke:#181818;stroke-width:1;"/><polygon fill="#181818" points="732.99,365.39,733.5158,358.1981,727.0794,354.9466,726.5536,362.1385,732.99,365.39" style="stroke:#181818;stroke-width:1;"/></g><!--link ProjectileExample to IPoolable--><g class="link" data-entity-1="ProjectileExample" data-entity-2="IPoolable" data-source-line="46" data-uid="lnk23" id="link_ProjectileExample_IPoolable"><path codeLine="46" d="M652.12,285.68 C630.36,302.94 607.4204,321.1309 582.1104,341.2109" fill="none" id="ProjectileExample-to-IPoolable" style="stroke:#181818;stroke-width:1;stroke-dasharray:7.0,7.0;"/><polygon fill="#181818" points="577.41,344.94,586.9467,342.4799,581.327,341.8324,581.9745,336.2127,577.41,344.94" style="stroke:#181818;stroke-width:1;"/></g><!--link ProjectileExample to Physics--><g class="link" data-entity-1="ProjectileExample" data-entity-2="Physics" data-source-line="47" data-uid="lnk24" id="link_ProjectileExample_Physics"><path codeLine="47" d="M612.64,273.25 C531.16,293.26 413.53,323.38 394.81,334.94 C377.29,345.77 365.5217,358.5263 354.8817,372.8263" fill="none" id="ProjectileExample-to-Physics" style="stroke:#181818;stroke-width:1;"/><polygon fill="#181818" points="351.3,377.64,359.8816,372.8072,354.2847,373.6286,353.4634,368.0317,351.3,377.64" style="stroke:#181818;stroke-width:1;"/></g><!--link ShootProjectileStrategy to ProjectileExample--><g class="link" data-entity-1="ShootProjectileStrategy" data-entity-2="ProjectileExample" data-source-line="49" data-uid="lnk25" id="link_ShootProjectileStrategy_ProjectileExample"><path codeLine="49" d="M691.81,116.47 C691.81,146.27 691.81,178.77 691.81,208.61" fill="none" id="ShootProjectileStrategy-to-ProjectileExample" style="stroke:#181818;stroke-width:1;"/><polygon fill="#181818" points="691.81,220.61,695.81,214.61,691.81,208.61,687.81,214.61,691.81,220.61" style="stroke:#181818;stroke-width:1;"/></g><!--link GunInventory to Dictionary--><g class="link" data-entity-1="GunInventory" data-entity-2="Dictionary" data-source-line="54" data-uid="lnk27" id="link_GunInventory_Dictionary"><path codeLine="54" d="M177.93,285.61 C176.7,300.54 175.41,318.65 174.81,334.94 C172.77,389.84 171.63,403.7 174.81,458.54 C179.06,531.88 189.3108,606.2226 195.4008,646.8426" fill="none" id="GunInventory-to-Dictionary" style="stroke:#181818;stroke-width:1;"/><polygon fill="#181818" points="197.18,658.71,200.2462,652.1832,195.4008,646.8426,192.3346,653.3694,197.18,658.71" style="stroke:#181818;stroke-width:1;"/></g><!--link GunInventory to Input--><g class="link" data-entity-1="GunInventory" data-entity-2="Input" data-source-line="55" data-uid="lnk28" id="link_GunInventory_Input"><path codeLine="55" d="M190.25,285.68 C198.53,313.3 208.657,347.0927 216.107,371.9427" fill="none" id="GunInventory-to-Input" style="stroke:#181818;stroke-width:1;"/><polygon fill="#181818" points="217.83,377.69,219.077,367.9204,216.3941,372.9006,211.4139,370.2178,217.83,377.69" style="stroke:#181818;stroke-width:1;"/></g><!--SRC=[XLJ1JkCm4BtdAopjfQ1jlw2Aj6mgg41GRU2C76SQ3Ccuijr2XFhlU5ntuxOkdEgPUNxlkJCJqN9ZMDaR2ztaJXgRYJXJI66bGgxxa7z2QViPDX9XidZfZHGcKPdZQcspK7YeNa7OXLBjz37_p7unad57nXtt1gWG9IL6wMqcqO9USW5iJXbUjK0KbJk7-oxQA5cp1vmXbNToeuiXNqYJAXIgaE32RJOuPEFnfRUoDt-znizipERbYrAsj9fRQ7hsREBG4PPW3n2Zemic74ZDKNgPGqWMF_MWGk_r2Uyrj8VYXLRaMxOmGCTieNJ8pZvujsg1hJGiUNLuzqPQ8pZ66ijMSSjgztYE0XpyZ0YRJF9ZyodE52vO64Y3HpB-JpQohbJTCpsOFK7wBasdh9JOj60LiZp_3ailYoRm19CxgRG8zMYu-Gtef7AAJUCyGmBi_xZzk2V9ShPVlhDTIZiRndgE6q2hjE_ziEVJM-Z_gXf-4oRVZUj_g2UDlWb7DUSwNdnNlLhBjWPzfc4HW0Q05WFXtVtGn5kkxRsFFCRlhLkpFrsdHcvLc51erjsAh8JIpyldOGNlU0EUe_P7ofFsDGH1lsZnFkwkx3y-Z_mD4YJRBm00]--></g></svg>